# xmcd CD database file
#
# Track frame offsets:
#	150
#	41270
#	61700
#	83938
#	99505
#	106883
#	119218
#	149800
#	168160
#	206230
#
# Disc length: 3293 seconds
#
# Revision: 0
# Processed by: cddbd v1.5.1PL0 Copyright (c) Steve Scherf et al.
# Submitted via: CDex 1.51
#
DISCID=8d0cdb0a
DTITLE=Miles Davis - BEST SELLERS JAZZ Miles Davis
DYEAR=1900
DGENRE=Jazz
TTITLE0=SOMEDAY MY PRINCE WILL COME
TTITLE1=DRAD-DOG
TTITLE2=I THOUGHT ABOUT YOU
TTITLE3=ONCE UPON A SUMMERTIME
TTITLE4=SONG #2
TTITLE5=CORCOVADO
TTITLE6=I FALL IN LOVE TOO EASILY
TTITLE7=WAIT TILL YOU SEE HER
TTITLE8=BABY WON'T YOU PLEASE COME HOME
TTITLE9=SO WHAT
EXTD=
EXTT0=
EXTT1=
EXTT2=
EXTT3=
EXTT4=
EXTT5=
EXTT6=
EXTT7=
EXTT8=
EXTT9=
PLAYORDER=
